# xmcd CD database file
#
# Track frame offsets:
#	150
#	21025
#	43940
#	65310
#	83944
#	107225
#	125984
#	148381
#	170798
#	192867
#
# Disc length: 2848 seconds
#
# Revision: 2
# Processed by: cddbd v1.5.2PL0 Copyright (c) Steve Scherf et al.
# Submitted via: CDex 2.22
#
DISCID=9a0b1e0a
DTITLE=喜 多郎 - 『絲綢之路』巡禮名曲集
DYEAR=1983
DGENRE=New Age
TTITLE0=主唱: 羅 文 - 同途萬里人 (無線電視片集<絲綢之路>主題曲)
TTITLE1=絲綢之路
TTITLE2=萬里長城往西行  (西へ向かって)
TTITLE3=長城最西端之嘉峪關  (防人の館)
TTITLE4=敦煌月牙泉  (ファンタジ_ 敦煌)
TTITLE5=莫高窟四十五窟  (菩薩)
TTITLE6=黑水城  (幻の黒水城)
TTITLE7=天山北麓  (緑の草原)
TTITLE8=回族人民  (ウイグルの民)
TTITLE9=同途萬里人 (Instrumental)
EXTD=YEAR: 1983
EXTT0=
EXTT1=
EXTT2=
EXTT3=
EXTT4=
EXTT5=
EXTT6=
EXTT7=
EXTT8=
EXTT9=
PLAYORDER=
